<?xml version="1.0" standalone="no"?>
<!DOCTYPE svg PUBLIC "-//W3C//DTD SVG 20010904//EN" "http://www.w3.org/TR/2001/REC-SVG-20010904/DTD/svg10.dtd">
<!-- Created using Krita: http://krita.org -->
<svg xmlns="http://www.w3.org/2000/svg" 
    xmlns:xlink="http://www.w3.org/1999/xlink"
    xmlns:krita="http://krita.org/namespaces/svg/krita"
    xmlns:sodipodi="http://sodipodi.sourceforge.net/DTD/sodipodi-0.dtd"
    width="18pt"
    height="18pt"
    viewBox="0 0 18 18">
<defs/>
<path id="shape0" transform="matrix(0.75 0 0 0.75 0 1.5)" fill="#c8c8c8" d="M16 7L16 3L24 10L16 17L16 13L8 13L8 7ZM14 17L14 16.917C12.822 17.602 11.458 18 10 18C5.589 18 2 14.411 2 10C2 5.589 5.589 2 10 2C11.458 2 12.822 2.398 14 3.083L14 0.838C12.774 0.302 11.423 0 10 0C4.478 0 0 4.477 0 10C0 15.523 4.478 20 10 20C11.423 20 12.774 19.698 14 19.162Z"/>
</svg>
