<?xml version="1.0" encoding="UTF-8" standalone="no"?>
<svg
   xmlns:dc="http://purl.org/dc/elements/1.1/"
   xmlns:cc="http://creativecommons.org/ns#"
   xmlns:rdf="http://www.w3.org/1999/02/22-rdf-syntax-ns#"
   xmlns:svg="http://www.w3.org/2000/svg"
   xmlns="http://www.w3.org/2000/svg"
   id="svg4"
   version="1.1"
   viewBox="0 0 24 24"
   height="24"
   width="24">
  <metadata
     id="metadata10">
    <rdf:RDF>
      <cc:Work
         rdf:about="">
        <dc:format>image/svg+xml</dc:format>
        <dc:type
           rdf:resource="http://purl.org/dc/dcmitype/StillImage" />
        <dc:title></dc:title>
      </cc:Work>
    </rdf:RDF>
  </metadata>
  <defs
     id="defs8" />
  <path
     style="fill:#c8c8c8;fill-opacity:1"
     id="path2"
     d="M15 21c0 1.598-1.392 3-2.971 3s-3.029-1.402-3.029-3h6zm.137-17.055c-.644-.374-1.042-1.07-1.041-1.82v-.003c.001-1.172-.938-2.122-2.096-2.122s-2.097.95-2.097 2.122v.003c.001.751-.396 1.446-1.041 1.82-4.668 2.709-1.985 11.715-6.862 13.306v1.749h20v-1.749c-4.877-1.591-2.193-10.598-6.863-13.306zm-3.137-2.945c.552 0 1 .449 1 1 0 .552-.448 1-1 1s-1-.448-1-1c0-.551.448-1 1-1zm-6.451 16c1.189-1.667 1.605-3.891 1.964-5.815.447-2.39.869-4.648 2.354-5.509 1.38-.801 2.956-.76 4.267 0 1.485.861 1.907 3.119 2.354 5.509.359 1.924.775 4.148 1.964 5.815h-12.903z" />
</svg>
