<?xml version="1.0" standalone="no"?>
<!DOCTYPE svg PUBLIC "-//W3C//DTD SVG 20010904//EN" "http://www.w3.org/TR/2001/REC-SVG-20010904/DTD/svg10.dtd">
<!-- Created using Krita: http://krita.org -->
<svg xmlns="http://www.w3.org/2000/svg" 
    xmlns:xlink="http://www.w3.org/1999/xlink"
    xmlns:krita="http://krita.org/namespaces/svg/krita"
    xmlns:sodipodi="http://sodipodi.sourceforge.net/DTD/sodipodi-0.dtd"
    width="18pt"
    height="18pt"
    viewBox="0 0 18 18">
<defs/>
<path id="shape0" transform="matrix(0.75 0 0 0.75 0 0.75)" fill="#c8c8c8" d="M6 17L4 17L4 22L2 22L2 17L0 17L0 14L6 14ZM4 0L2 0L2 12L4 12ZM15 7L9 7L9 10L11 10L11 22L13 22L13 10L15 10ZM13 0L11 0L11 5L13 5ZM24 14L18 14L18 17L20 17L20 22L22 22L22 17L24 17ZM22 0L20 0L20 12L22 12Z"/>
</svg>
