<?xml version="1.0" standalone="no"?>
<!DOCTYPE svg PUBLIC "-//W3C//DTD SVG 20010904//EN" "http://www.w3.org/TR/2001/REC-SVG-20010904/DTD/svg10.dtd">
<!-- Created using Krita: http://krita.org -->
<svg xmlns="http://www.w3.org/2000/svg" 
    xmlns:xlink="http://www.w3.org/1999/xlink"
    xmlns:krita="http://krita.org/namespaces/svg/krita"
    xmlns:sodipodi="http://sodipodi.sourceforge.net/DTD/sodipodi-0.dtd"
    width="18pt"
    height="18pt"
    viewBox="0 0 18 18">
<defs/>
<path id="shape0" transform="matrix(0.75 0 0 0.75 0 0)" fill="#c8c8c8" d="M24 12C24 18.627 18.627 24 12 24C5.373 24 0 18.627 0 12L2 12C2 17.514 6.486 22 12 22C17.514 22 22 17.514 22 12C22 6.486 17.514 2 12 2C9.223 2 6.713 3.141 4.901 4.977L6.962 7.038L0 8.392L1.305 1.379L3.484 3.559C5.656 1.363 8.666 -4.44089e-16 12 -4.44089e-16C18.627 -4.44089e-16 24 5.373 24 12ZM11 6L11 14L18 14L18 12L13 12L13 6Z"/>
</svg>
