<?xml version="1.0" standalone="no"?>
<!DOCTYPE svg PUBLIC "-//W3C//DTD SVG 20010904//EN" "http://www.w3.org/TR/2001/REC-SVG-20010904/DTD/svg10.dtd">
<!-- Created using Krita: http://krita.org -->
<svg xmlns="http://www.w3.org/2000/svg" 
    xmlns:xlink="http://www.w3.org/1999/xlink"
    xmlns:krita="http://krita.org/namespaces/svg/krita"
    xmlns:sodipodi="http://sodipodi.sourceforge.net/DTD/sodipodi-0.dtd"
    width="18pt"
    height="18pt"
    viewBox="0 0 18 18">
<defs/>
<path id="shape0" transform="matrix(0.75 0 0 0.75 2.25 0)" fill="#c8c8c8" d="M15 10L15 6C15 2.687 12.313 0 9 0C5.687 0 3 2.687 3 6L3 10L0 10L0 24L18 24L18 10ZM10 17.723L10 20L8 20L8 17.723C7.405 17.376 7 16.739 7 16C7 14.896 7.896 14 9 14C10.104 14 11 14.896 11 16C11 16.738 10.596 17.376 10 17.723ZM5 10L5 6C5 3.794 6.794 2 9 2C11.205 2 13 3.794 13 6L13 10Z"/>
</svg>
