<?xml version="1.0" encoding="UTF-8" standalone="no"?>
<svg
   xmlns:dc="http://purl.org/dc/elements/1.1/"
   xmlns:cc="http://creativecommons.org/ns#"
   xmlns:rdf="http://www.w3.org/1999/02/22-rdf-syntax-ns#"
   xmlns:svg="http://www.w3.org/2000/svg"
   xmlns="http://www.w3.org/2000/svg"
   id="svg4"
   version="1.1"
   viewBox="0 0 24 24"
   height="24"
   width="24">
  <metadata
     id="metadata10">
    <rdf:RDF>
      <cc:Work
         rdf:about="">
        <dc:format>image/svg+xml</dc:format>
        <dc:type
           rdf:resource="http://purl.org/dc/dcmitype/StillImage" />
        <dc:title></dc:title>
      </cc:Work>
    </rdf:RDF>
  </metadata>
  <defs
     id="defs8" />
  <path
     style="fill:#c8c8c8;fill-opacity:1"
     id="path2"
     d="M10 16c0-1.104.896-2 2-2s2 .896 2 2c0 .738-.404 1.376-1 1.723v2.277h-2v-2.277c-.596-.347-1-.985-1-1.723zm11-6v14h-18v-14h3v-4c0-3.313 2.687-6 6-6s6 2.687 6 6v4h3zm-13 0h8v-4c0-2.206-1.795-4-4-4s-4 1.794-4 4v4zm11 2h-14v10h14v-10z" />
</svg>
