<svg height="24" viewBox="0 0 6.3499997 6.3500002" width="24" xmlns="http://www.w3.org/2000/svg">
    <g transform="translate(0 -290.64998)">
        <path d="m2.7214512 295.02709-.3679064.39988h-.7805411v.49987h-.4998715v.49986h-.4998624v-.5446l1.4753569-1.4936c-.100972-.13972-.1884449-.28942-.2594247-.44863l-1.71580384 1.73703v1.24968h1.49960554v-.49988h.4998717v-.49986h.4998622l.6125947-.66558c-.1637049-.0622-.3189176-.14045-.4638811-.23417z" stroke-width=".249934"/>
        <g fill="none" stroke="#000">
            <path d="m5.33083 293.20007v1.97209" stroke-width=".49"/>
            <path d="m6.316879 294.18611h-1.9720982" stroke-width=".49"/>
            <path d="m4.5722147 291.9279c-.2759273 0-.4998716.22394-.4998716.49987 0 .27592.2239443.49987.4998716.49987.2759274 0 .4998716-.22395.4998716-.49987 0-.27593-.2239442-.49987-.4998716-.49987z" stroke-width=".25"/>
            <path d="m6.0718203 292.92764c0-1.10422-.8952669-1.99949-1.9994772-1.99949s-1.9994677.89527-1.9994677 1.99949c0 1.1042.8952574 1.99946 1.9994677 1.99946" stroke-width=".490117"/>
        </g>
    </g>
</svg>
