<svg height="24" viewBox="0 0 24 24" width="24" xmlns="http://www.w3.org/2000/svg">
    <path d="m24 4h-7v2h7zm0 4h-7v2h7zm0 4h-7v2h7zm-4 9.193v.807h-2v-.984c0-1.329.085-1.713-1.208-2.013-2.479-.572-4.822-1.112-5.714-3.067-.333-.728-.556-1.921.266-3.473 1.646-3.109 2.075-5.746 1.179-7.235-.644-1.069-1.856-1.228-2.523-1.228-.672 0-1.896.163-2.546 1.254-.9 1.511-.464 4.132 1.194 7.191.839 1.547.622 2.744.292 3.476-.887 1.966-3.318 2.526-5.67 3.068-1.348.309-1.27.675-1.27 2.011v1h-1.996l-.004-.833c-.009-2.224.088-3.495 2.647-4.086 2.805-.647 5.573-1.227 4.242-3.682-3.943-7.275-1.123-11.399 3.111-11.399 4.154 0 7.042 3.971 3.111 11.398-1.292 2.44 1.375 3.02 4.242 3.682 2.569.594 2.657 1.873 2.647 4.113z"/>
</svg>
