<svg height="24" viewBox="0 0 24 24" width="24" xmlns="http://www.w3.org/2000/svg">
    <path d="m10.239203 8.7679831c-.4892538-.505678-.463322-1.2992034.040628-1.789322l5.141491-4.9858984c.251542-.2428983.573966-.3656441.894661-.3656441.325017 0 .648305.1262034.894661.380339zm-8.4521691 12.7033219c-.1063221.102-.1599153.23944-.1599153.376881 0 .287848.2342542.524695.524695.524695.1313898 0 .263644-.04927.365644-.147814l.8635424-.840203-.7304237-.753762zm7.2955933-9.710746-2.9554069 2.864644c-1.5879152 1.539509-2.3978644 3.031475-3.1464406 5.113831l1.3043898 1.34761c2.1039661-.682881 3.6192711-1.446152 5.2071864-2.986525l2.9545421-2.865508zm8.6181358-8.8273217-7.611966 7.3820347 3.834508 3.958117 7.611967-7.3803043c.557542-.5411186.837609-1.260305.837609-1.9803558 0-2.4065086-2.915644-3.6832374-4.672118-1.9794916z" stroke-width=".864407"/>
</svg>
