<svg height="24" viewBox="0 0 24 24" width="24" xmlns="http://www.w3.org/2000/svg">
    <g stroke-width=".853763">
        <path d="m12 0c1.208596 0 2.188164.97956763 2.188164 2.1881632 0 1.2085956-.979568 2.1881633-2.188164 2.1881633s-2.1881636-.9795677-2.1881636-2.1881633c0-1.20859557.9795676-2.1881632 2.1881636-2.1881632z"/>
        <path d="m12 9.8118368c1.208596 0 2.188164.9795672 2.188164 2.1881632s-.979568 2.188163-2.188164 2.188163-2.1881636-.979567-2.1881636-2.188163.9795676-2.1881632 2.1881636-2.1881632z"/>
        <path d="m12 19.623674c1.208596 0 2.188164.979567 2.188164 2.188163s-.979568 2.188163-2.188164 2.188163-2.1881636-.979567-2.1881636-2.188163.9795676-2.188163 2.1881636-2.188163z"/>
    </g>
</svg>
