<svg height="48" viewBox="0 0 48 48" width="48" xmlns="http://www.w3.org/2000/svg">
    <path d="m-1.6740984.044417h48.0000004v48h-48.0000004z" fill="none"/>
    <path d="m10 3c-2.21 0-4 1.79-4 4v28c0 2.21 1.79 4 4 4h8l6 6 6-6h8c2.21 0 4-1.79 4-4v-28c0-2.21-1.79-4-4-4zm2.361328 2.7285156h23.277344c1.837282 0 3.326172 1.5242625 3.326172 3.4042964v23.81836c0 1.880035-1.48889 3.402344-3.326172 3.402344h-6.650391l-4.988281 5.105468-4.988281-5.105468h-6.650391c-1.837282 0-3.326172-1.522309-3.326172-3.402344v-23.81836c0-1.8800339 1.48889-3.4042964 3.326172-3.4042964z"/>
    <path d="m26.689255 30.476144c0 1.38-1.116 2.5-2.499 2.5-1.378 0-2.499-1.12-2.499-2.5s1.121-2.5 2.499-2.5c1.383 0 2.499 1.119 2.499 2.5zm-2.42-21.5000002c-4.029 0-7.06 2.6930012-7.06 8.0000012h3.955c0-2.304.906-4.189 3.024-4.189 1.247 0 2.57.828 2.684 2.411.123 1.666-.767 2.511-1.892 3.582-2.924 2.78-2.816 4.049-2.816 7.196h3.943c0-1.452-.157-2.508 1.838-4.659 1.331-1.436 2.986-3.222 3.021-5.943.047-3.963-2.751-6.3980012-6.697-6.3980012z"/>
</svg>
