<svg height="1792" viewBox="0 0 1792 1792" width="1792" xmlns="http://www.w3.org/2000/svg">
    <path d="m1558.151 896.0005q0 134.4993-52.5927 256.9282-52.5927 122.4289-141.3967 211.2329-88.804 88.804-211.2329 141.3967-122.4289 52.5927-256.9282 52.5927-148.29413 0-281.93126-62.5077-133.63714-62.5077-227.61425-176.3148-6.03523-8.6218-5.60414-19.399.43109-10.7771 7.3285-17.6745l118.118-118.9802q8.62173-7.7596 21.55437-7.7596 13.79481 1.7244 19.83004 10.3461 62.93877 81.9067 154.32934 126.7398 91.39056 44.8331 193.9894 44.8331 89.6662 0 171.1418-34.9181 81.4755-34.9181 140.9656-94.4082 59.4901-59.4901 94.4082-140.9656 34.9181-81.47559 34.9181-171.1418 0-89.66621-34.9181-171.14176-34.9181-81.47555-94.4082-140.96564-59.4901-59.49008-140.9656-94.40817-81.4756-34.9181-171.1418-34.9181-84.49315 0-162.08892 30.60722-77.59576 30.60722-137.94803 87.51078l118.118 118.98016q26.72743 25.86526 12.07045 59.49009-14.65699 34.487-50.86834 34.487h-386.25445q-22.41656 0-38.79788-16.38132-16.38133-16.38133-16.38133-38.79789v-386.25445q0-36.21136 34.48701-50.86834 33.62483-14.65697 59.49008 12.07046l112.08277 111.22059q92.25274-87.07969 210.80182-134.93041 118.54908-47.85072 245.28882-47.85072 134.4993 0 256.9282 52.59268 122.4289 52.59269 211.2329 141.39672 88.804 88.80404 141.3967 211.23291 52.5927 122.42887 52.5927 256.92819z" stroke-width=".862174"/>
</svg>
