<svg height="1792" viewBox="0 0 1792 1792" width="1792" xmlns="http://www.w3.org/2000/svg">
    <path d="m1558.1503 344.2081v386.25433q0 22.41655-16.3813 38.79787-16.3814 16.38132-38.7979 16.38132h-386.2543q-36.2114 0-50.8684-34.48699-14.6569-33.62482 12.0705-59.49007l118.9801-118.98013q-127.6019-118.11795-300.899-118.11795-89.66618 0-171.14171 34.91808-81.47552 34.91808-140.96558 94.40815-59.49007 59.49006-94.40815 140.96558-34.91808 81.47553-34.91808 171.14171 0 89.66618 34.91808 171.1417 34.91808 81.4755 94.40815 140.9656 59.49006 59.4901 140.96558 94.4081 81.47553 34.9181 171.14171 34.9181 102.59881 0 193.9893-44.8331 91.3906-44.8331 154.3293-126.7397 6.0353-8.6217 19.8301-10.3461 12.0704 0 21.5543 7.7596l118.118 118.9801q7.7596 6.8974 8.1906 17.6746.4311 10.7772-6.4663 19.399-93.977 113.807-227.6141 176.3147-133.6371 62.5077-281.9312 62.5077-134.49928 0-256.9281-52.5927-122.42883-52.5926-211.23284-141.3967-88.80401-88.804-141.39668-211.2328-52.59266-122.4288-52.59266-256.9281 0-134.49928 52.59266-256.9281 52.59267-122.42883 141.39668-211.23284 88.80401-88.80401 211.23284-141.39668 122.42882-52.59266 256.9281-52.59266 126.7397 0 245.2887 47.8507 118.5491 47.85071 210.8018 134.93036l112.0827-111.22055q25.0031-26.72742 60.3523-12.07045 33.6248 14.65697 33.6248 50.86832z" stroke-width=".862175"/>
</svg>
