<svg height="24" viewBox="0 0 24 24" width="24" xmlns="http://www.w3.org/2000/svg">
    <path d="m15 21c0 1.598-1.392 3-2.971 3s-3.029-1.402-3.029-3zm.137-17.055c-.644-.374-1.042-1.07-1.041-1.82v-.003c.001-1.172-.938-2.122-2.096-2.122s-2.097.95-2.097 2.122v.003c.001.751-.396 1.446-1.041 1.82-4.668 2.709-1.985 11.715-6.862 13.306v1.749h20v-1.749c-4.877-1.591-2.193-10.598-6.863-13.306zm-3.137-2.945c.552 0 1 .449 1 1 0 .552-.448 1-1 1s-1-.448-1-1c0-.551.448-1 1-1zm-6.451 16c1.189-1.667 1.605-3.891 1.964-5.815.447-2.39.869-4.648 2.354-5.509 1.38-.801 2.956-.76 4.267 0 1.485.861 1.907 3.119 2.354 5.509.359 1.924.775 4.148 1.964 5.815zm15.229-7.679c.18.721.05 1.446-.304 2.035l.97.584c.504-.838.688-1.869.433-2.892-.255-1.024-.9-1.848-1.739-2.351l-.582.97c.589.355 1.043.934 1.222 1.654zm.396-4.346-.597.995c1.023.616 1.812 1.623 2.125 2.874.311 1.251.085 2.51-.53 3.534l.994.598c.536-.892.835-1.926.835-3-.001-1.98-1.01-3.909-2.827-5.001zm-16.73 2.692-.582-.97c-.839.504-1.484 1.327-1.739 2.351-.255 1.023-.071 2.053.433 2.892l.97-.584c-.354-.588-.484-1.314-.304-2.035.179-.72.633-1.299 1.222-1.654zm-4.444 2.308c0 1.074.299 2.108.835 3l.994-.598c-.615-1.024-.841-2.283-.53-3.534.312-1.251 1.101-2.258 2.124-2.873l-.597-.995c-1.817 1.092-2.826 3.021-2.826 5z"/>
</svg>
