<svg height="24" viewBox="0 0 24 24" width="24" xmlns="http://www.w3.org/2000/svg">
    <path d="m22 17.251v1.749h-13.008l2.205-2h7.254c-1.015-1.422-1.465-3.248-1.798-4.949l1.735-1.574c.561 2.98 1.016 5.928 3.612 6.774zm-9.971 6.749c1.578 0 2.971-1.402 2.971-3h-6c0 1.598 1.449 3 3.029 3zm10.971-19.75-20.654 18.734-1.346-1.479 2.762-2.505h-1.762v-1.749c4.877-1.591 2.194-10.597 6.863-13.306.645-.374 1.041-1.069 1.04-1.82v-.003c0-1.172.939-2.122 2.097-2.122s2.097.95 2.097 2.122v.003c-.001.75.396 1.447 1.04 1.82 1.076.624 1.759 1.585 2.236 2.711l4.285-3.886 1.342 1.48zm-12-2.25c0 .552.448 1 1 1s1-.448 1-1c0-.551-.448-1-1-1s-1 .449-1 1zm-5.032 15 9.812-8.898c-.353-1.083-.842-1.961-1.646-2.427-1.312-.76-2.888-.801-4.267 0-1.485.862-1.907 3.119-2.353 5.51-.36 1.924-.776 4.148-1.965 5.815z"/>
</svg>
