<svg height="24" viewBox="0 0 24 24" width="24" xmlns="http://www.w3.org/2000/svg">
    <path d="m18 13v5h-5l1.607-1.608c-3.404-2.824-5.642-8.392-9.179-8.392-2.113 0-3.479 1.578-3.479 4s1.365 4 3.479 4c1.664 0 2.86-1.068 4.015-2.392l1.244 1.561c-1.499 1.531-3.05 2.831-5.259 2.831-3.197 0-5.428-2.455-5.428-6s2.231-6 5.428-6c4.839 0 7.34 6.449 10.591 8.981zm.57-7c-2.211 0-3.762 1.301-5.261 2.833l1.244 1.561c1.156-1.325 2.352-2.394 4.017-2.394 2.114 0 3.48 1.578 3.48 4 0 1.819-.771 3.162-2.051 3.718v2.099c2.412-.623 4-2.829 4-5.816.001-3.546-2.231-6.001-5.429-6.001z"/>
</svg>
