<svg height="24" width="24" xmlns="http://www.w3.org/2000/svg">
    <g fill="none">
        <path d="m-1-1h582v402h-582z"/>
        <g stroke="#303c42" stroke-linecap="round" stroke-linejoin="round" stroke-miterlimit="10" stroke-width="2">
            <path d="m2.5 22.984425c1.19 0 1.19-.955166 2.38-.955166s1.19.955166 2.38.955166c1.188 0 1.188-.955166 2.376-.955166s1.188.955166 2.375.955166 1.187-.955166 2.375-.955166c1.186 0 1.186.955166 2.372.955166 1.184 0 1.184-.955166 2.369-.955166 1.187 0 1.187.955166 2.374.955166l-.638-4.266728c-.241-1.61041-.362-3.236103-.362-4.862751v-4.441523c0-4.324038-3.416-8.09981-7.934-8.379673-4.952-.306608-9.067 3.438598-9.067 8.10172v4.720432c0 1.626648-.121 3.252341-.362 4.862751l-.638 4.265772z"/>
            <ellipse cx="9" cy="9" rx=".5" ry="1.5"/>
            <ellipse cx="15" cy="9" rx=".5" ry="1.5"/>
        </g>
    </g>
</svg>
