<svg height="24" viewBox="0 0 24 24" width="24" xmlns="http://www.w3.org/2000/svg">
    <path d="m22.909091 9.2836364v1.4967276h-2.768727c.02182-.243273.04145-.488728.04145-.742909 0-.2585459-.01854-.5061824-.03818-.7527277h2.765455zm-11.616-7.1487273v-2.1349091h1.495636v2.1425455c-.264-.024-.528-.038183-.792-.038183-.234545 0-.469091.010909-.703636.030547zm6.022909 1.6843636 1.712727-1.9014545 1.111637 1.0014544-1.748728 1.9385456c-.272727-.324-.646909-.733091-1.075636-1.0385455zm-11.7141819 1.0385455-1.7487273-1.9385456 1.1116364-1.0014544 1.7127273 1.9014545c-.4276365.3054545-.8029091.7145455-1.0756364 1.0385455zm-1.7421818 5.9225458h-2.7687273v-1.4967276h2.7654545c-.019636.2465453-.038182.4952727-.038182.7538186 0 .254181.019636.499636.041455.742909zm10.3221817 9.946909h-4.363636c-.301091 0-.545455.244363-.545455.545454s.244364.545455.545455.545455h4.363636c.301091 0 .545455-.244364.545455-.545455s-.244364-.545454-.545455-.545454zm0 2.181818h-4.363636c-.301091 0-.545455.244364-.545455.545454 0 .301091.244364.545455.545455.545455h4.363636c.301091 0 .545455-.244364.545455-.545455 0-.30109-.244364-.545454-.545455-.545454zm4.363636-12.871636c0 3.893453-3.506181 6.526909-3.506181 9.598909h-2.169819c-.0033-2.026909.949091-3.697091 1.877455-5.309455.830182-1.445454 1.616727-2.811273 1.616727-4.289454 0-2.8276368-2.263636-4.1149096-4.366909-4.1149096-2.1 0-4.3603635 1.2872728-4.3603635 4.1149096 0 1.478181.7865455 2.844 1.6167275 4.289454.928363 1.612364 1.881818 3.282546 1.876363 5.309455h-2.1687268c0-3.072-3.5061818-5.705456-3.5061818-9.598909 0-4.0614551 3.2705454-6.2967278 6.5421816-6.2967278 3.273818 0 6.548727 2.2374545 6.548727 6.2967278z" stroke-width="1.09091"/>
</svg>
