<svg height="24" viewBox="0 0 24 24" width="24" xmlns="http://www.w3.org/2000/svg">
    <path d="m14.509208 8.343398c1.202865.9346638 1.945334 2.226588 1.94209 3.651856-.0032 1.425268-.748954 2.714677-1.953439 3.648082l.978322 1.538485c1.713516-1.324631 2.775344-3.158736 2.780206-5.184051.0032-2.0265727-1.05048-3.8594193-2.759132-5.1890826z" stroke-width="1.428038"/>
    <path d="m18.318701 4.9920248c2.307024 1.7957761 3.72921 4.2712232 3.723838 7.0065862-.0054 2.735361-1.440099 5.212198-3.754288 7.003804l.980846 1.74296c2.887361-2.234991 4.68032-5.328952 4.685693-8.743986.009-3.4150319-1.766089-6.5062134-4.648077-8.7467639z" stroke-width="1.57784"/>
    <g transform="matrix(.6875 0 0 1.01875 0 -.225)">
        <path d="m11 1.8125-9.1191406 5.09375v10.1875l9.1191406 5.09375zm-1.6875 2.9941406v14.3867184l-7.4324287-4.041727v-6.1767663z" transform="matrix(1.4545455 0 0 .98159509 0 .220859)"/>
        <path d="m2.7346492 8.9958856h-2.7346492v6.1896554h2.7346492z" stroke-width=".786744"/>
        <path d="m7 7c-4.7095572 2.7190641-5.0350591 2.9069927 0 0z" fill="none"/>
        <path d="m2.7357957 7-2.7357957 1.0208759v.9750097h2.7346492z"/>
        <path d="m2.7357956 17-2.73579573-1.020876v-.97501h2.73464923z"/>
    </g>
</svg>
