<svg height="24" viewBox="0 0 24 24" width="24" xmlns="http://www.w3.org/2000/svg">
    <path d="m14.408 24h-13.408v-24h10.189c3.163 0 9.811 7.223 9.811 9.614v2.068c-.622-.296-1.293-.502-2-.603v-.623c0-4.106-6-2.456-6-2.456s1.518-6-2.638-6h-7.362v20h9.26c.566.81 1.299 1.49 2.148 2zm2.257-8.669c.402-.206.852-.331 1.335-.331 1.455 0 2.67 1.042 2.941 2.418l1.96-.398c-.456-2.291-2.475-4.02-4.901-4.02-.957 0-1.845.278-2.604.745l-1.396-1.745-1 5h5zm5.335 8.669-1.396-1.745c-.759.467-1.647.745-2.604.745-2.426 0-4.445-1.729-4.901-4.02l1.96-.398c.271 1.376 1.486 2.418 2.941 2.418.483 0 .933-.125 1.335-.331l-1.335-1.669h5z"/>
</svg>
