<svg height="24" viewBox="0 0 24 24" width="24" xmlns="http://www.w3.org/2000/svg">
    <path d="m12 3c-4.687 0-8.929 2.015-12 5.272l2.388 2.533c2.46-2.609 5.859-4.222 9.612-4.222s7.152 1.613 9.612 4.222l2.388-2.533c-3.071-3.257-7.313-5.272-12-5.272z" fill-opacity=".45"/>
    <path d="m6.466 15.13c1.417-1.502 3.373-2.431 5.534-2.431s4.118.929 5.534 2.431l2.33-2.472c-2.012-2.134-4.793-3.454-7.864-3.454s-5.852 1.32-7.864 3.455z"/>
    <path d="m8.213 16.984c.97-1.028 2.308-1.664 3.787-1.664s2.817.636 3.787 1.664l-3.787 4.016z"/>
</svg>
