<svg clip-rule="evenodd" fill-rule="evenodd" height="24" width="24" xmlns="http://www.w3.org/2000/svg">
    <path d="m4.81 4 13.243 15.714-1.532 1.286-5.092-6h-2.124l-1.046-1.013-1.302 1.019-1.362-1.075-1.407 1.081-4.188-3.448 3.346-3.564h2.21l-2.278-2.714zm8.499 6h-1.504l-1.678-2h2.06c1.145-1.683 3.104-3 5.339-3 3.497 0 6.474 2.866 6.474 6.5 0 3.288-2.444 5.975-5.54 6.431l-1.678-2c.237.045.485.069.744.069 2.412 0 4.474-1.986 4.474-4.5 0-2.498-2.044-4.5-4.479-4.5-2.055 0-3.292 1.433-4.212 3zm5.691-.125c.828 0 1.5.672 1.5 1.5s-.672 1.5-1.5 1.5-1.5-.672-1.5-1.5.672-1.5 1.5-1.5zm-10.626 1.484-1.14-1.359h-3.022l-1.293 1.376 1.312 1.081 1.38-1.061 1.351 1.066z"/>
</svg>
